{
	"asset":{
		"generator":"Khronos glTF Blender I/O v3.5.30",
		"version":"2.0"
	},
	"extensionsUsed":[
		"KHR_materials_specular",
		"KHR_materials_ior"
	],
	"scene":0,
	"scenes":[
		{
			"name":"Scene",
			"nodes":[
				1,
				8
			]
		}
	],
	"nodes":[
		{
			"mesh":0,
			"name":"Fridge_Door_top"
		},
		{
			"children":[
				0
			],
			"mesh":1,
			"name":"Fridge_Door_bot",
			"translation":[
				0.2861102819442749,
				-0.10354572534561157,
				0.22445420920848846
			]
		},
		{
			"mesh":2,
			"name":"Drawer_Freezer.001",
			"translation":[
				0,
				0.2325751781463623,
				0
			]
		},
		{
			"mesh":3,
			"name":"Drawer_Freezer.002",
			"translation":[
				0,
				0.4045681357383728,
				0
			]
		},
		{
			"mesh":4,
			"name":"Drawer_fridge",
			"translation":[
				0,
				0.6879685521125793,
				0
			]
		},
		{
			"mesh":5,
			"name":"Shelv_freezer",
			"translation":[
				0,
				0.22914868593215942,
				0
			]
		},
		{
			"mesh":6,
			"name":"Shelv_fridge",
			"translation":[
				0,
				0.8452515602111816,
				0
			]
		},
		{
			"children":[
				2,
				3,
				4,
				5,
				6
			],
			"mesh":7,
			"name":"Drawer_Freezer.003",
			"translation":[
				0,
				-0.7258855700492859,
				0.006372295320034027
			]
		},
		{
			"children":[
				7
			],
			"mesh":8,
			"name":"FridgeMainBody"
		}
	],
	"animations":[
		{
			"channels":[
				{
					"sampler":0,
					"target":{
						"node":1,
						"path":"rotation"
					}
				},
				{
					"sampler":1,
					"target":{
						"node":7,
						"path":"translation"
					}
				}
			],
			"name":"Animation",
			"samplers":[
				{
					"input":35,
					"interpolation":"LINEAR",
					"output":36
				},
				{
					"input":37,
					"interpolation":"LINEAR",
					"output":38
				}
			]
		}
	],
	"materials":[
		{
			"doubleSided":true,
			"extensions":{
				"KHR_materials_specular":{
					"specularColorFactor":[
						0.9336054095423205,
						0.9336054095423205,
						0.9336054095423205
					]
				},
				"KHR_materials_ior":{
					"ior":1.4500000476837158
				}
			},
			"name":"white_plastic_X",
			"pbrMetallicRoughness":{
				"baseColorFactor":[
					0.7484002113342285,
					0.7484002113342285,
					0.7484002113342285,
					1
				],
				"metallicFactor":0.031496062874794006,
				"roughnessFactor":0.18503937125205994
			}
		}
	],
	"meshes":[
		{
			"name":"Cube.003",
			"primitives":[
				{
					"attributes":{
						"POSITION":0,
						"TEXCOORD_0":1,
						"NORMAL":2
					},
					"indices":3
				}
			]
		},
		{
			"name":"Cube.002",
			"primitives":[
				{
					"attributes":{
						"POSITION":4,
						"TEXCOORD_0":5,
						"NORMAL":6
					},
					"indices":7
				}
			]
		},
		{
			"name":"Plane.020",
			"primitives":[
				{
					"attributes":{
						"POSITION":8,
						"TEXCOORD_0":9,
						"NORMAL":10
					},
					"indices":11
				}
			]
		},
		{
			"name":"Plane.008",
			"primitives":[
				{
					"attributes":{
						"POSITION":12,
						"TEXCOORD_0":13,
						"NORMAL":14
					},
					"indices":11
				}
			]
		},
		{
			"name":"Plane.007",
			"primitives":[
				{
					"attributes":{
						"POSITION":15,
						"TEXCOORD_0":16,
						"NORMAL":17
					},
					"indices":18
				}
			]
		},
		{
			"name":"Plane.003",
			"primitives":[
				{
					"attributes":{
						"POSITION":19,
						"TEXCOORD_0":20,
						"NORMAL":21
					},
					"indices":22,
					"material":0
				}
			]
		},
		{
			"name":"Plane.006",
			"primitives":[
				{
					"attributes":{
						"POSITION":23,
						"TEXCOORD_0":24,
						"NORMAL":25
					},
					"indices":26
				}
			]
		},
		{
			"name":"Plane.011",
			"primitives":[
				{
					"attributes":{
						"POSITION":27,
						"TEXCOORD_0":28,
						"NORMAL":29
					},
					"indices":30
				}
			]
		},
		{
			"name":"Cube.001",
			"primitives":[
				{
					"attributes":{
						"POSITION":31,
						"TEXCOORD_0":32,
						"NORMAL":33
					},
					"indices":34
				}
			]
		}
	],
	"accessors":[
		{
			"bufferView":0,
			"componentType":5126,
			"count":1476,
			"max":[
				0.0017783988732844591,
				0.9531650543212891,
				0.045545753091573715
			],
			"min":[
				-0.5741103291511536,
				-0.0005353324813768268,
				-0.10276293009519577
			],
			"type":"VEC3"
		},
		{
			"bufferView":1,
			"componentType":5126,
			"count":1476,
			"type":"VEC2"
		},
		{
			"bufferView":2,
			"componentType":5126,
			"count":1476,
			"type":"VEC3"
		},
		{
			"bufferView":3,
			"componentType":5123,
			"count":6768,
			"type":"SCALAR"
		},
		{
			"bufferView":4,
			"componentType":5126,
			"count":2043,
			"max":[
				0.0018897057743743062,
				0.0010601283283904195,
				0.045545753091573715
			],
			"min":[
				-0.5741103291511536,
				-0.7464541792869568,
				-0.007714590989053249
			],
			"type":"VEC3"
		},
		{
			"bufferView":5,
			"componentType":5126,
			"count":2043,
			"type":"VEC2"
		},
		{
			"bufferView":6,
			"componentType":5126,
			"count":2043,
			"type":"VEC3"
		},
		{
			"bufferView":7,
			"componentType":5123,
			"count":9528,
			"type":"SCALAR"
		},
		{
			"bufferView":8,
			"componentType":5126,
			"count":2324,
			"max":[
				0.21329078078269958,
				0.16499115526676178,
				0.18691705167293549
			],
			"min":[
				-0.21329078078269958,
				-0.004267792217433453,
				-0.18456971645355225
			],
			"type":"VEC3"
		},
		{
			"bufferView":9,
			"componentType":5126,
			"count":2324,
			"type":"VEC2"
		},
		{
			"bufferView":10,
			"componentType":5126,
			"count":2324,
			"type":"VEC3"
		},
		{
			"bufferView":11,
			"componentType":5123,
			"count":12576,
			"type":"SCALAR"
		},
		{
			"bufferView":12,
			"componentType":5126,
			"count":2324,
			"max":[
				0.21329078078269958,
				0.16499115526676178,
				0.18691705167293549
			],
			"min":[
				-0.21329078078269958,
				-0.004267792217433453,
				-0.18456971645355225
			],
			"type":"VEC3"
		},
		{
			"bufferView":13,
			"componentType":5126,
			"count":2324,
			"type":"VEC2"
		},
		{
			"bufferView":14,
			"componentType":5126,
			"count":2324,
			"type":"VEC3"
		},
		{
			"bufferView":15,
			"componentType":5126,
			"count":3093,
			"max":[
				0.23518234491348267,
				0.13839155435562134,
				0.18317966163158417
			],
			"min":[
				-0.23518234491348267,
				-0.003965297713875771,
				-0.1829880326986313
			],
			"type":"VEC3"
		},
		{
			"bufferView":16,
			"componentType":5126,
			"count":3093,
			"type":"VEC2"
		},
		{
			"bufferView":17,
			"componentType":5126,
			"count":3093,
			"type":"VEC3"
		},
		{
			"bufferView":18,
			"componentType":5123,
			"count":17382,
			"type":"SCALAR"
		},
		{
			"bufferView":19,
			"componentType":5126,
			"count":340,
			"max":[
				0.21619440615177155,
				0.17098784446716309,
				0.1829509735107422
			],
			"min":[
				-0.21619440615177155,
				-0.003568179439753294,
				-0.18286241590976715
			],
			"type":"VEC3"
		},
		{
			"bufferView":20,
			"componentType":5126,
			"count":340,
			"type":"VEC2"
		},
		{
			"bufferView":21,
			"componentType":5126,
			"count":340,
			"type":"VEC3"
		},
		{
			"bufferView":22,
			"componentType":5123,
			"count":1704,
			"type":"SCALAR"
		},
		{
			"bufferView":23,
			"componentType":5126,
			"count":680,
			"max":[
				0.2486024796962738,
				0.47771140933036804,
				0.1829509735107422
			],
			"min":[
				-0.2486024796962738,
				-0.003568179439753294,
				-0.18286241590976715
			],
			"type":"VEC3"
		},
		{
			"bufferView":24,
			"componentType":5126,
			"count":680,
			"type":"VEC2"
		},
		{
			"bufferView":25,
			"componentType":5126,
			"count":680,
			"type":"VEC3"
		},
		{
			"bufferView":26,
			"componentType":5123,
			"count":3408,
			"type":"SCALAR"
		},
		{
			"bufferView":27,
			"componentType":5126,
			"count":1180,
			"max":[
				0.21301966905593872,
				0.22029022872447968,
				0.18137378990650177
			],
			"min":[
				-0.21301966905593872,
				-0.00570050161331892,
				-0.17876410484313965
			],
			"type":"VEC3"
		},
		{
			"bufferView":28,
			"componentType":5126,
			"count":1180,
			"type":"VEC2"
		},
		{
			"bufferView":29,
			"componentType":5126,
			"count":1180,
			"type":"VEC3"
		},
		{
			"bufferView":30,
			"componentType":5123,
			"count":6312,
			"type":"SCALAR"
		},
		{
			"bufferView":31,
			"componentType":5126,
			"count":8182,
			"max":[
				0.2889224588871002,
				0.8500000238418579,
				0.22643135488033295
			],
			"min":[
				-0.28822287917137146,
				-0.8500000238418579,
				-0.26999998092651367
			],
			"type":"VEC3"
		},
		{
			"bufferView":32,
			"componentType":5126,
			"count":8182,
			"type":"VEC2"
		},
		{
			"bufferView":33,
			"componentType":5126,
			"count":8182,
			"type":"VEC3"
		},
		{
			"bufferView":34,
			"componentType":5123,
			"count":40224,
			"type":"SCALAR"
		},
		{
			"bufferView":35,
			"componentType":5126,
			"count":201,
			"max":[
				8.333333333333334
			],
			"min":[
				0
			],
			"type":"SCALAR"
		},
		{
			"bufferView":36,
			"componentType":5126,
			"count":201,
			"type":"VEC4"
		},
		{
			"bufferView":37,
			"componentType":5126,
			"count":101,
			"max":[
				6.25
			],
			"min":[
				2.0833333333333335
			],
			"type":"SCALAR"
		},
		{
			"bufferView":38,
			"componentType":5126,
			"count":101,
			"type":"VEC3"
		}
	],
	"bufferViews":[
		{
			"buffer":0,
			"byteLength":17712,
			"byteOffset":0,
			"target":34962
		},
		{
			"buffer":0,
			"byteLength":11808,
			"byteOffset":17712,
			"target":34962
		},
		{
			"buffer":0,
			"byteLength":17712,
			"byteOffset":29520,
			"target":34962
		},
		{
			"buffer":0,
			"byteLength":13536,
			"byteOffset":47232,
			"target":34963
		},
		{
			"buffer":0,
			"byteLength":24516,
			"byteOffset":60768,
			"target":34962
		},
		{
			"buffer":0,
			"byteLength":16344,
			"byteOffset":85284,
			"target":34962
		},
		{
			"buffer":0,
			"byteLength":24516,
			"byteOffset":101628,
			"target":34962
		},
		{
			"buffer":0,
			"byteLength":19056,
			"byteOffset":126144,
			"target":34963
		},
		{
			"buffer":0,
			"byteLength":27888,
			"byteOffset":145200,
			"target":34962
		},
		{
			"buffer":0,
			"byteLength":18592,
			"byteOffset":173088,
			"target":34962
		},
		{
			"buffer":0,
			"byteLength":27888,
			"byteOffset":191680,
			"target":34962
		},
		{
			"buffer":0,
			"byteLength":25152,
			"byteOffset":219568,
			"target":34963
		},
		{
			"buffer":0,
			"byteLength":27888,
			"byteOffset":244720,
			"target":34962
		},
		{
			"buffer":0,
			"byteLength":18592,
			"byteOffset":272608,
			"target":34962
		},
		{
			"buffer":0,
			"byteLength":27888,
			"byteOffset":291200,
			"target":34962
		},
		{
			"buffer":0,
			"byteLength":37116,
			"byteOffset":319088,
			"target":34962
		},
		{
			"buffer":0,
			"byteLength":24744,
			"byteOffset":356204,
			"target":34962
		},
		{
			"buffer":0,
			"byteLength":37116,
			"byteOffset":380948,
			"target":34962
		},
		{
			"buffer":0,
			"byteLength":34764,
			"byteOffset":418064,
			"target":34963
		},
		{
			"buffer":0,
			"byteLength":4080,
			"byteOffset":452828,
			"target":34962
		},
		{
			"buffer":0,
			"byteLength":2720,
			"byteOffset":456908,
			"target":34962
		},
		{
			"buffer":0,
			"byteLength":4080,
			"byteOffset":459628,
			"target":34962
		},
		{
			"buffer":0,
			"byteLength":3408,
			"byteOffset":463708,
			"target":34963
		},
		{
			"buffer":0,
			"byteLength":8160,
			"byteOffset":467116,
			"target":34962
		},
		{
			"buffer":0,
			"byteLength":5440,
			"byteOffset":475276,
			"target":34962
		},
		{
			"buffer":0,
			"byteLength":8160,
			"byteOffset":480716,
			"target":34962
		},
		{
			"buffer":0,
			"byteLength":6816,
			"byteOffset":488876,
			"target":34963
		},
		{
			"buffer":0,
			"byteLength":14160,
			"byteOffset":495692,
			"target":34962
		},
		{
			"buffer":0,
			"byteLength":9440,
			"byteOffset":509852,
			"target":34962
		},
		{
			"buffer":0,
			"byteLength":14160,
			"byteOffset":519292,
			"target":34962
		},
		{
			"buffer":0,
			"byteLength":12624,
			"byteOffset":533452,
			"target":34963
		},
		{
			"buffer":0,
			"byteLength":98184,
			"byteOffset":546076,
			"target":34962
		},
		{
			"buffer":0,
			"byteLength":65456,
			"byteOffset":644260,
			"target":34962
		},
		{
			"buffer":0,
			"byteLength":98184,
			"byteOffset":709716,
			"target":34962
		},
		{
			"buffer":0,
			"byteLength":80448,
			"byteOffset":807900,
			"target":34963
		},
		{
			"buffer":0,
			"byteLength":804,
			"byteOffset":888348
		},
		{
			"buffer":0,
			"byteLength":3216,
			"byteOffset":889152
		},
		{
			"buffer":0,
			"byteLength":404,
			"byteOffset":892368
		},
		{
			"buffer":0,
			"byteLength":1212,
			"byteOffset":892772
		}
	],
	"buffers":[
		{
			"byteLength":893984,
			"uri":"data:application/octet-stream;base64,"
		}
	]
}
