{
	"asset":{
		"generator":"Khronos glTF Blender I/O v3.5.30",
		"version":"2.0"
	},
	"extensionsUsed":[
		"KHR_materials_specular",
		"KHR_materials_ior",
		"KHR_materials_emissive_strength"
	],
	"scene":0,
	"scenes":[
		{
			"name":"Scene",
			"nodes":[
				0
			]
		}
	],
	"nodes":[
		{
			"mesh":0,
			"name":"Complete_freezer",
			"translation":[
				0,
				-0.4933103919029236,
				0.006372295320034027
			]
		}
	],
	"materials":[
		{
			"alphaMode":"BLEND",
			"name":"Glass",
			"pbrMetallicRoughness":{}
		},
		{
			"doubleSided":true,
			"extensions":{
				"KHR_materials_specular":{
					"specularColorFactor":[
						1.897086119821904,
						1.897086119821904,
						1.897086119821904
					]
				},
				"KHR_materials_ior":{
					"ior":1.4500000476837158
				}
			},
			"name":"black_brushed_metal_X",
			"pbrMetallicRoughness":{}
		},
		{
			"doubleSided":true,
			"extensions":{
				"KHR_materials_specular":{
					"specularColorFactor":[
						1.897086119821904,
						1.897086119821904,
						1.897086119821904
					]
				},
				"KHR_materials_ior":{
					"ior":1.4500000476837158
				}
			},
			"name":"noise_metal_X",
			"pbrMetallicRoughness":{
				"roughnessFactor":0.5772727727890015
			}
		},
		{
			"doubleSided":true,
			"extensions":{
				"KHR_materials_specular":{
					"specularColorFactor":[
						0.9336054095423205,
						0.9336054095423205,
						0.9336054095423205
					]
				},
				"KHR_materials_ior":{
					"ior":1.4500000476837158
				}
			},
			"name":"white_plastic_X",
			"pbrMetallicRoughness":{
				"baseColorFactor":[
					0.7484002113342285,
					0.7484002113342285,
					0.7484002113342285,
					1
				],
				"metallicFactor":0.031496062874794006,
				"roughnessFactor":0.18503937125205994
			}
		},
		{
			"doubleSided":true,
			"emissiveFactor":[
				1,
				1,
				1
			],
			"extensions":{
				"KHR_materials_emissive_strength":{
					"emissiveStrength":55.099998474121094
				}
			},
			"name":"Emision.001",
			"pbrMetallicRoughness":{
				"baseColorFactor":[
					0,
					0,
					0,
					1
				]
			}
		},
		{
			"doubleSided":true,
			"extensions":{
				"KHR_materials_specular":{
					"specularColorFactor":[
						2.371357614441398,
						2.371357614441398,
						2.371357614441398
					]
				},
				"KHR_materials_ior":{
					"ior":1.4500000476837158
				}
			},
			"name":"Material",
			"pbrMetallicRoughness":{
				"baseColorFactor":[
					0.04445439949631691,
					0.04445439949631691,
					0.04445439949631691,
					1
				],
				"metallicFactor":0.21259842813014984
			}
		},
		{
			"doubleSided":true,
			"extensions":{
				"KHR_materials_specular":{
					"specularColorFactor":[
						1.897086119821904,
						1.897086119821904,
						1.897086119821904
					]
				},
				"KHR_materials_ior":{
					"ior":1.4500000476837158
				}
			},
			"name":"black_brushed_metal_Y",
			"pbrMetallicRoughness":{}
		},
		{
			"doubleSided":true,
			"extensions":{
				"KHR_materials_specular":{
					"specularColorFactor":[
						0.9336054095423205,
						0.9336054095423205,
						0.9336054095423205
					]
				},
				"KHR_materials_ior":{
					"ior":1.4500000476837158
				}
			},
			"name":"white_plastic_Y",
			"pbrMetallicRoughness":{
				"baseColorFactor":[
					0.7484002113342285,
					0.7484002113342285,
					0.7484002113342285,
					1
				],
				"metallicFactor":0.031496062874794006,
				"roughnessFactor":0.18503937125205994
			}
		}
	],
	"meshes":[
		{
			"name":"Plane.020",
			"primitives":[
				{
					"attributes":{
						"POSITION":0,
						"TEXCOORD_0":1,
						"NORMAL":2
					},
					"indices":3,
					"material":0
				},
				{
					"attributes":{
						"POSITION":4,
						"TEXCOORD_0":5,
						"NORMAL":6
					},
					"indices":7,
					"material":1
				},
				{
					"attributes":{
						"POSITION":8,
						"TEXCOORD_0":9,
						"NORMAL":10
					},
					"indices":11,
					"material":2
				},
				{
					"attributes":{
						"POSITION":12,
						"TEXCOORD_0":13,
						"NORMAL":14
					},
					"indices":15,
					"material":3
				},
				{
					"attributes":{
						"POSITION":16,
						"TEXCOORD_0":17,
						"NORMAL":18
					},
					"indices":19,
					"material":4
				},
				{
					"attributes":{
						"POSITION":20,
						"TEXCOORD_0":21,
						"NORMAL":22
					},
					"indices":23,
					"material":5
				},
				{
					"attributes":{
						"POSITION":24,
						"TEXCOORD_0":25,
						"NORMAL":26
					},
					"indices":27,
					"material":6
				},
				{
					"attributes":{
						"POSITION":28,
						"TEXCOORD_0":29,
						"NORMAL":30
					},
					"indices":31,
					"material":7
				}
			]
		}
	],
	"accessors":[
		{
			"bufferView":0,
			"componentType":5126,
			"count":10538,
			"max":[
				0.65180504322052,
				1.1648991107940674,
				0.6273715496063232
			],
			"min":[
				-0.2486024796962738,
				-0.2382756769657135,
				-0.18456971645355225
			],
			"type":"VEC3"
		},
		{
			"bufferView":1,
			"componentType":5126,
			"count":10538,
			"type":"VEC2"
		},
		{
			"bufferView":2,
			"componentType":5126,
			"count":10538,
			"type":"VEC3"
		},
		{
			"bufferView":3,
			"componentType":5123,
			"count":56478,
			"type":"SCALAR"
		},
		{
			"bufferView":4,
			"componentType":5126,
			"count":3375,
			"max":[
				0.7490618228912354,
				1.3433103561401367,
				0.5933451652526855
			],
			"min":[
				-0.28800004720687866,
				-0.3566896319389343,
				-0.2763722836971283
			],
			"type":"VEC3"
		},
		{
			"bufferView":5,
			"componentType":5126,
			"count":3375,
			"type":"VEC2"
		},
		{
			"bufferView":6,
			"componentType":5126,
			"count":3375,
			"type":"VEC3"
		},
		{
			"bufferView":7,
			"componentType":5123,
			"count":15282,
			"type":"SCALAR"
		},
		{
			"bufferView":8,
			"componentType":5126,
			"count":201,
			"max":[
				0.6978210210800171,
				1.1645376682281494,
				0.6281620264053345
			],
			"min":[
				-0.23512107133865356,
				0.3365793228149414,
				0.17819316685199738
			],
			"type":"VEC3"
		},
		{
			"bufferView":9,
			"componentType":5126,
			"count":201,
			"type":"VEC2"
		},
		{
			"bufferView":10,
			"componentType":5126,
			"count":201,
			"type":"VEC3"
		},
		{
			"bufferView":11,
			"componentType":5123,
			"count":960,
			"type":"SCALAR"
		},
		{
			"bufferView":12,
			"componentType":5126,
			"count":6762,
			"max":[
				0.717462420463562,
				1.3270518779754639,
				0.5933451652526855
			],
			"min":[
				-0.2770964801311493,
				-0.3506377339363098,
				-0.18701499700546265
			],
			"type":"VEC3"
		},
		{
			"bufferView":13,
			"componentType":5126,
			"count":6762,
			"type":"VEC2"
		},
		{
			"bufferView":14,
			"componentType":5126,
			"count":6762,
			"type":"VEC3"
		},
		{
			"bufferView":15,
			"componentType":5123,
			"count":33330,
			"type":"SCALAR"
		},
		{
			"bufferView":16,
			"componentType":5126,
			"count":63,
			"max":[
				0.05850857496261597,
				1.2860453128814697,
				0.16982266306877136
			],
			"min":[
				-0.06781867146492004,
				1.2774930000305176,
				0.12008640915155411
			],
			"type":"VEC3"
		},
		{
			"bufferView":17,
			"componentType":5126,
			"count":63,
			"type":"VEC2"
		},
		{
			"bufferView":18,
			"componentType":5126,
			"count":63,
			"type":"VEC3"
		},
		{
			"bufferView":19,
			"componentType":5123,
			"count":312,
			"type":"SCALAR"
		},
		{
			"bufferView":20,
			"componentType":5126,
			"count":486,
			"max":[
				0.2889224588871002,
				1.3413019180297852,
				0.22005906701087952
			],
			"min":[
				-0.28822287917137146,
				-0.3544076085090637,
				0.21077796816825867
			],
			"type":"VEC3"
		},
		{
			"bufferView":21,
			"componentType":5126,
			"count":486,
			"type":"VEC2"
		},
		{
			"bufferView":22,
			"componentType":5126,
			"count":486,
			"type":"VEC3"
		},
		{
			"bufferView":23,
			"componentType":5123,
			"count":2280,
			"type":"SCALAR"
		},
		{
			"bufferView":24,
			"componentType":5126,
			"count":101,
			"max":[
				0.7492775917053223,
				1.342929720878601,
				0.591037392616272
			],
			"min":[
				0.28876733779907227,
				0.38922932744026184,
				0.18367205560207367
			],
			"type":"VEC3"
		},
		{
			"bufferView":25,
			"componentType":5126,
			"count":101,
			"type":"VEC2"
		},
		{
			"bufferView":26,
			"componentType":5126,
			"count":101,
			"type":"VEC3"
		},
		{
			"bufferView":27,
			"componentType":5123,
			"count":348,
			"type":"SCALAR"
		},
		{
			"bufferView":28,
			"componentType":5126,
			"count":314,
			"max":[
				0.7224912643432617,
				1.336789846420288,
				0.597098171710968
			],
			"min":[
				0.2872209846973419,
				0.3905048668384552,
				0.21502533555030823
			],
			"type":"VEC3"
		},
		{
			"bufferView":29,
			"componentType":5126,
			"count":314,
			"type":"VEC2"
		},
		{
			"bufferView":30,
			"componentType":5126,
			"count":314,
			"type":"VEC3"
		},
		{
			"bufferView":31,
			"componentType":5123,
			"count":1488,
			"type":"SCALAR"
		}
	],
	"bufferViews":[
		{
			"buffer":0,
			"byteLength":126456,
			"byteOffset":0,
			"target":34962
		},
		{
			"buffer":0,
			"byteLength":84304,
			"byteOffset":126456,
			"target":34962
		},
		{
			"buffer":0,
			"byteLength":126456,
			"byteOffset":210760,
			"target":34962
		},
		{
			"buffer":0,
			"byteLength":112956,
			"byteOffset":337216,
			"target":34963
		},
		{
			"buffer":0,
			"byteLength":40500,
			"byteOffset":450172,
			"target":34962
		},
		{
			"buffer":0,
			"byteLength":27000,
			"byteOffset":490672,
			"target":34962
		},
		{
			"buffer":0,
			"byteLength":40500,
			"byteOffset":517672,
			"target":34962
		},
		{
			"buffer":0,
			"byteLength":30564,
			"byteOffset":558172,
			"target":34963
		},
		{
			"buffer":0,
			"byteLength":2412,
			"byteOffset":588736,
			"target":34962
		},
		{
			"buffer":0,
			"byteLength":1608,
			"byteOffset":591148,
			"target":34962
		},
		{
			"buffer":0,
			"byteLength":2412,
			"byteOffset":592756,
			"target":34962
		},
		{
			"buffer":0,
			"byteLength":1920,
			"byteOffset":595168,
			"target":34963
		},
		{
			"buffer":0,
			"byteLength":81144,
			"byteOffset":597088,
			"target":34962
		},
		{
			"buffer":0,
			"byteLength":54096,
			"byteOffset":678232,
			"target":34962
		},
		{
			"buffer":0,
			"byteLength":81144,
			"byteOffset":732328,
			"target":34962
		},
		{
			"buffer":0,
			"byteLength":66660,
			"byteOffset":813472,
			"target":34963
		},
		{
			"buffer":0,
			"byteLength":756,
			"byteOffset":880132,
			"target":34962
		},
		{
			"buffer":0,
			"byteLength":504,
			"byteOffset":880888,
			"target":34962
		},
		{
			"buffer":0,
			"byteLength":756,
			"byteOffset":881392,
			"target":34962
		},
		{
			"buffer":0,
			"byteLength":624,
			"byteOffset":882148,
			"target":34963
		},
		{
			"buffer":0,
			"byteLength":5832,
			"byteOffset":882772,
			"target":34962
		},
		{
			"buffer":0,
			"byteLength":3888,
			"byteOffset":888604,
			"target":34962
		},
		{
			"buffer":0,
			"byteLength":5832,
			"byteOffset":892492,
			"target":34962
		},
		{
			"buffer":0,
			"byteLength":4560,
			"byteOffset":898324,
			"target":34963
		},
		{
			"buffer":0,
			"byteLength":1212,
			"byteOffset":902884,
			"target":34962
		},
		{
			"buffer":0,
			"byteLength":808,
			"byteOffset":904096,
			"target":34962
		},
		{
			"buffer":0,
			"byteLength":1212,
			"byteOffset":904904,
			"target":34962
		},
		{
			"buffer":0,
			"byteLength":696,
			"byteOffset":906116,
			"target":34963
		},
		{
			"buffer":0,
			"byteLength":3768,
			"byteOffset":906812,
			"target":34962
		},
		{
			"buffer":0,
			"byteLength":2512,
			"byteOffset":910580,
			"target":34962
		},
		{
			"buffer":0,
			"byteLength":3768,
			"byteOffset":913092,
			"target":34962
		},
		{
			"buffer":0,
			"byteLength":2976,
			"byteOffset":916860,
			"target":34963
		}
	],
	"buffers":[
		{
			"byteLength":919836,
			"uri":"data:application/octet-stream;base64,"
		}
	]
}
