{
	"asset":{
		"generator":"Khronos glTF Blender I/O v3.5.30",
		"version":"2.0"
	},
	"scene":0,
	"scenes":[
		{
			"name":"Scene",
			"nodes":[
				0,
				1
			]
		}
	],
	"nodes":[
		{
			"mesh":0,
			"name":"Clock_Structure",
			"rotation":[
				0.7071068286895752,
				0,
				0,
				0.7071068286895752
			],
			"scale":[
				0.1674998551607132,
				0.019999999552965164,
				0.16750000417232513
			]
		},
		{
			"mesh":1,
			"name":"Glass",
			"rotation":[
				0.7071068286895752,
				0,
				0,
				0.7071068286895752
			],
			"scale":[
				0.1674998551607132,
				0.019999999552965164,
				0.16750000417232513
			]
		}
	],
	"materials":[
		{
			"doubleSided":true,
			"name":"Material",
			"normalTexture":{
				"index":0
			},
			"pbrMetallicRoughness":{
				"baseColorTexture":{
					"index":1
				},
				"metallicRoughnessTexture":{
					"index":2
				}
			}
		},
		{
			"alphaMode":"BLEND",
			"doubleSided":true,
			"name":"Clock_Glass",
			"pbrMetallicRoughness":{}
		}
	],
	"meshes":[
		{
			"name":"Cylinder",
			"primitives":[
				{
					"attributes":{
						"POSITION":0,
						"TEXCOORD_0":1,
						"NORMAL":2
					},
					"indices":3,
					"material":0
				}
			]
		},
		{
			"name":"Cylinder.001",
			"primitives":[
				{
					"attributes":{
						"POSITION":4,
						"TEXCOORD_0":5,
						"NORMAL":6
					},
					"indices":7,
					"material":1
				}
			]
		}
	],
	"textures":[
		{
			"sampler":0,
			"source":0
		},
		{
			"sampler":0,
			"source":1
		},
		{
			"sampler":0,
			"source":2
		}
	],
	"images":[
		{
			"bufferView":4,
			"mimeType":"image/jpeg",
			"name":"Clock_01_normal"
		},
		{
			"bufferView":5,
			"mimeType":"image/jpeg",
			"name":"Clock_01_diffuse"
		},
		{
			"bufferView":6,
			"mimeType":"image/jpeg",
			"name":"Clock_01_metallic-Clock_01_roughness"
		}
	],
	"accessors":[
		{
			"bufferView":0,
			"componentType":5126,
			"count":53784,
			"max":[
				0.9951366186141968,
				2.8120617866516113,
				0.9983585476875305
			],
			"min":[
				-1.0009785890579224,
				0.0004551112651824951,
				-0.9983584880828857
			],
			"type":"VEC3"
		},
		{
			"bufferView":1,
			"componentType":5126,
			"count":53784,
			"type":"VEC2"
		},
		{
			"bufferView":2,
			"componentType":5126,
			"count":53784,
			"type":"VEC3"
		},
		{
			"bufferView":3,
			"componentType":5123,
			"count":229218,
			"type":"SCALAR"
		},
		{
			"bufferView":7,
			"componentType":5126,
			"count":468,
			"max":[
				0.7948126196861267,
				2.6718759536743164,
				0.7977337837219238
			],
			"min":[
				-0.8006547093391418,
				2.303860664367676,
				-0.7977337837219238
			],
			"type":"VEC3"
		},
		{
			"bufferView":8,
			"componentType":5126,
			"count":468,
			"type":"VEC2"
		},
		{
			"bufferView":9,
			"componentType":5126,
			"count":468,
			"type":"VEC3"
		},
		{
			"bufferView":10,
			"componentType":5123,
			"count":2304,
			"type":"SCALAR"
		}
	],
	"bufferViews":[
		{
			"buffer":0,
			"byteLength":645408,
			"byteOffset":0,
			"target":34962
		},
		{
			"buffer":0,
			"byteLength":430272,
			"byteOffset":645408,
			"target":34962
		},
		{
			"buffer":0,
			"byteLength":645408,
			"byteOffset":1075680,
			"target":34962
		},
		{
			"buffer":0,
			"byteLength":458436,
			"byteOffset":1721088,
			"target":34963
		},
		{
			"buffer":0,
			"byteLength":205268,
			"byteOffset":2179524
		},
		{
			"buffer":0,
			"byteLength":143170,
			"byteOffset":2384792
		},
		{
			"buffer":0,
			"byteLength":317271,
			"byteOffset":2527964
		},
		{
			"buffer":0,
			"byteLength":5616,
			"byteOffset":2845236,
			"target":34962
		},
		{
			"buffer":0,
			"byteLength":3744,
			"byteOffset":2850852,
			"target":34962
		},
		{
			"buffer":0,
			"byteLength":5616,
			"byteOffset":2854596,
			"target":34962
		},
		{
			"buffer":0,
			"byteLength":4608,
			"byteOffset":2860212,
			"target":34963
		}
	],
	"samplers":[
		{
			"magFilter":9729,
			"minFilter":9987
		}
	],
	"buffers":[
		{
			"byteLength":2864820,
			"uri":"data:application/octet-stream;base64,"
		}
	]
}
