{
	"asset":{
		"generator":"Khronos glTF Blender I/O v3.5.30",
		"version":"2.0"
	},
	"scene":0,
	"scenes":[
		{
			"name":"Scene",
			"nodes":[
				0
			]
		}
	],
	"nodes":[
		{
			"mesh":0,
			"name":"ClockBody",
			"scale":[
				0.19499999284744263,
				0.2449999898672104,
				0.004999999888241291
			]
		}
	],
	"materials":[
		{
			"doubleSided":true,
			"name":"Material",
			"normalTexture":{
				"index":0
			},
			"pbrMetallicRoughness":{
				"baseColorTexture":{
					"index":1
				},
				"metallicRoughnessTexture":{
					"index":2
				}
			}
		}
	],
	"meshes":[
		{
			"name":"Cube.001",
			"primitives":[
				{
					"attributes":{
						"POSITION":0,
						"TEXCOORD_0":1,
						"NORMAL":2
					},
					"indices":3,
					"material":0
				}
			]
		}
	],
	"textures":[
		{
			"sampler":0,
			"source":0
		},
		{
			"sampler":0,
			"source":1
		},
		{
			"sampler":0,
			"source":2
		}
	],
	"images":[
		{
			"bufferView":4,
			"mimeType":"image/jpeg",
			"name":"Clock_04_normal"
		},
		{
			"bufferView":5,
			"mimeType":"image/jpeg",
			"name":"Clock_04_diffuse"
		},
		{
			"bufferView":6,
			"mimeType":"image/jpeg",
			"name":"Clock_04_metallic-Clock_04_roughness"
		}
	],
	"accessors":[
		{
			"bufferView":0,
			"componentType":5126,
			"count":19053,
			"max":[
				1.0000001192092896,
				1.0000005960464478,
				1.5424145460128784
			],
			"min":[
				-1.0000001192092896,
				-1.0000005960464478,
				-0.4702781140804291
			],
			"type":"VEC3"
		},
		{
			"bufferView":1,
			"componentType":5126,
			"count":19053,
			"type":"VEC2"
		},
		{
			"bufferView":2,
			"componentType":5126,
			"count":19053,
			"type":"VEC3"
		},
		{
			"bufferView":3,
			"componentType":5123,
			"count":85494,
			"type":"SCALAR"
		}
	],
	"bufferViews":[
		{
			"buffer":0,
			"byteLength":228636,
			"byteOffset":0,
			"target":34962
		},
		{
			"buffer":0,
			"byteLength":152424,
			"byteOffset":228636,
			"target":34962
		},
		{
			"buffer":0,
			"byteLength":228636,
			"byteOffset":381060,
			"target":34962
		},
		{
			"buffer":0,
			"byteLength":170988,
			"byteOffset":609696,
			"target":34963
		},
		{
			"buffer":0,
			"byteLength":235828,
			"byteOffset":780684
		},
		{
			"buffer":0,
			"byteLength":391557,
			"byteOffset":1016512
		},
		{
			"buffer":0,
			"byteLength":287263,
			"byteOffset":1408072
		}
	],
	"samplers":[
		{
			"magFilter":9729,
			"minFilter":9987
		}
	],
	"buffers":[
		{
			"byteLength":1695336,
			"uri":"data:application/octet-stream;base64,"
		}
	]
}
