{
	"asset":{
		"generator":"Khronos glTF Blender I/O v3.5.30",
		"version":"2.0"
	},
	"extensionsUsed":[
		"KHR_materials_specular",
		"KHR_materials_ior"
	],
	"scene":0,
	"scenes":[
		{
			"name":"Scene",
			"nodes":[
				0
			]
		}
	],
	"nodes":[
		{
			"mesh":0,
			"name":"MH009 Shelves 01"
		}
	],
	"animations":[
		{
			"channels":[
				{
					"sampler":0,
					"target":{
						"node":0,
						"path":"rotation"
					}
				}
			],
			"name":"CubeAction",
			"samplers":[
				{
					"input":8,
					"interpolation":"LINEAR",
					"output":9
				}
			]
		}
	],
	"materials":[
		{
			"doubleSided":true,
			"extensions":{
				"KHR_materials_specular":{
					"specularColorFactor":[
						1.4838224809186682,
						1.4838224809186682,
						1.4838224809186682
					]
				},
				"KHR_materials_ior":{
					"ior":1.4500000476837158
				}
			},
			"name":"Shelve_Wooden_1",
			"pbrMetallicRoughness":{
				"metallicFactor":0,
				"roughnessFactor":0.4272727370262146
			}
		},
		{
			"doubleSided":true,
			"extensions":{
				"KHR_materials_specular":{
					"specularColorFactor":[
						1.4767090650419226,
						1.4767090650419226,
						1.4767090650419226
					]
				},
				"KHR_materials_ior":{
					"ior":1.4500000476837158
				}
			},
			"name":"Shelve_Wooden_2",
			"pbrMetallicRoughness":{
				"metallicFactor":0,
				"roughnessFactor":0.4272727370262146
			}
		}
	],
	"meshes":[
		{
			"name":"Cube.003",
			"primitives":[
				{
					"attributes":{
						"POSITION":0,
						"TEXCOORD_0":1,
						"NORMAL":2
					},
					"indices":3,
					"material":0
				},
				{
					"attributes":{
						"POSITION":4,
						"TEXCOORD_0":5,
						"NORMAL":6
					},
					"indices":7,
					"material":1
				}
			]
		}
	],
	"accessors":[
		{
			"bufferView":0,
			"componentType":5126,
			"count":2063,
			"max":[
				0.47657546401023865,
				0.10932126641273499,
				0.2500001788139343
			],
			"min":[
				-0.3288380801677704,
				-0.18130749464035034,
				-0.24999994039535522
			],
			"type":"VEC3"
		},
		{
			"bufferView":1,
			"componentType":5126,
			"count":2063,
			"type":"VEC2"
		},
		{
			"bufferView":2,
			"componentType":5126,
			"count":2063,
			"type":"VEC3"
		},
		{
			"bufferView":3,
			"componentType":5123,
			"count":3621,
			"type":"SCALAR"
		},
		{
			"bufferView":4,
			"componentType":5126,
			"count":2751,
			"max":[
				0.47707438468933105,
				0.16469250619411469,
				0.2500001788139343
			],
			"min":[
				-0.329336941242218,
				-0.18026460707187653,
				-0.24999994039535522
			],
			"type":"VEC3"
		},
		{
			"bufferView":5,
			"componentType":5126,
			"count":2751,
			"type":"VEC2"
		},
		{
			"bufferView":6,
			"componentType":5126,
			"count":2751,
			"type":"VEC3"
		},
		{
			"bufferView":7,
			"componentType":5123,
			"count":4767,
			"type":"SCALAR"
		},
		{
			"bufferView":8,
			"componentType":5126,
			"count":60,
			"max":[
				2.5
			],
			"min":[
				0.041666666666666664
			],
			"type":"SCALAR"
		},
		{
			"bufferView":9,
			"componentType":5126,
			"count":60,
			"type":"VEC4"
		}
	],
	"bufferViews":[
		{
			"buffer":0,
			"byteLength":24756,
			"byteOffset":0,
			"target":34962
		},
		{
			"buffer":0,
			"byteLength":16504,
			"byteOffset":24756,
			"target":34962
		},
		{
			"buffer":0,
			"byteLength":24756,
			"byteOffset":41260,
			"target":34962
		},
		{
			"buffer":0,
			"byteLength":7242,
			"byteOffset":66016,
			"target":34963
		},
		{
			"buffer":0,
			"byteLength":33012,
			"byteOffset":73260,
			"target":34962
		},
		{
			"buffer":0,
			"byteLength":22008,
			"byteOffset":106272,
			"target":34962
		},
		{
			"buffer":0,
			"byteLength":33012,
			"byteOffset":128280,
			"target":34962
		},
		{
			"buffer":0,
			"byteLength":9534,
			"byteOffset":161292,
			"target":34963
		},
		{
			"buffer":0,
			"byteLength":240,
			"byteOffset":170828
		},
		{
			"buffer":0,
			"byteLength":960,
			"byteOffset":171068
		}
	],
	"buffers":[
		{
			"byteLength":172028,
			"uri":"data:application/octet-stream;base64,"
		}
	]
}
