{
	"asset":{
		"generator":"Khronos glTF Blender I/O v3.5.30",
		"version":"2.0"
	},
	"extensionsUsed":[
		"KHR_materials_transmission",
		"KHR_materials_ior"
	],
	"scene":0,
	"scenes":[
		{
			"name":"Scene",
			"nodes":[
				0
			]
		}
	],
	"nodes":[
		{
			"mesh":0,
			"name":"ChainSopports",
			"scale":[
				0.5,
				9.790271759033203,
				0.6227194666862488
			]
		}
	],
	"materials":[
		{
			"doubleSided":true,
			"extensions":{
				"KHR_materials_transmission":{
					"transmissionFactor":1,
					"transmissionTexture":{
						"index":0,
						"texCoord":1
					}
				},
				"KHR_materials_ior":{
					"ior":1.4500000476837158
				}
			},
			"name":"Material",
			"normalTexture":{
				"index":1,
				"texCoord":1
			},
			"pbrMetallicRoughness":{
				"baseColorTexture":{
					"index":2,
					"texCoord":1
				},
				"metallicRoughnessTexture":{
					"index":3,
					"texCoord":1
				}
			}
		}
	],
	"meshes":[
		{
			"name":"Cube.006",
			"primitives":[
				{
					"attributes":{
						"POSITION":0,
						"TEXCOORD_0":1,
						"TEXCOORD_1":2,
						"NORMAL":3
					},
					"indices":4,
					"material":0
				}
			]
		}
	],
	"textures":[
		{
			"sampler":0,
			"source":0
		},
		{
			"sampler":0,
			"source":1
		},
		{
			"sampler":0,
			"source":2
		},
		{
			"sampler":0,
			"source":3
		}
	],
	"images":[
		{
			"bufferView":5,
			"mimeType":"image/jpeg",
			"name":"Cooker_hood_3_transmission.jpg"
		},
		{
			"bufferView":6,
			"mimeType":"image/jpeg",
			"name":"Cooker_hood_3_normal"
		},
		{
			"bufferView":7,
			"mimeType":"image/jpeg",
			"name":"Cooker_hood_3_diffuse"
		},
		{
			"bufferView":8,
			"mimeType":"image/jpeg",
			"name":"Cooker_hood_3_metallic.jpg-Cooker_hood_3_glossiness"
		}
	],
	"accessors":[
		{
			"bufferView":0,
			"componentType":5126,
			"count":13869,
			"max":[
				1.2000001668930054,
				0.1040671244263649,
				0.4865933954715729
			],
			"min":[
				-1.2000001668930054,
				-9.709914593258873e-05,
				-0.2918541133403778
			],
			"type":"VEC3"
		},
		{
			"bufferView":1,
			"componentType":5126,
			"count":13869,
			"type":"VEC2"
		},
		{
			"bufferView":2,
			"componentType":5126,
			"count":13869,
			"type":"VEC2"
		},
		{
			"bufferView":3,
			"componentType":5126,
			"count":13869,
			"type":"VEC3"
		},
		{
			"bufferView":4,
			"componentType":5123,
			"count":57096,
			"type":"SCALAR"
		}
	],
	"bufferViews":[
		{
			"buffer":0,
			"byteLength":166428,
			"byteOffset":0,
			"target":34962
		},
		{
			"buffer":0,
			"byteLength":110952,
			"byteOffset":166428,
			"target":34962
		},
		{
			"buffer":0,
			"byteLength":110952,
			"byteOffset":277380,
			"target":34962
		},
		{
			"buffer":0,
			"byteLength":166428,
			"byteOffset":388332,
			"target":34962
		},
		{
			"buffer":0,
			"byteLength":114192,
			"byteOffset":554760,
			"target":34963
		},
		{
			"buffer":0,
			"byteLength":270346,
			"byteOffset":668952
		},
		{
			"buffer":0,
			"byteLength":404008,
			"byteOffset":939300
		},
		{
			"buffer":0,
			"byteLength":1197396,
			"byteOffset":1343308
		},
		{
			"buffer":0,
			"byteLength":568047,
			"byteOffset":2540704
		}
	],
	"samplers":[
		{
			"magFilter":9729,
			"minFilter":9987
		}
	],
	"buffers":[
		{
			"byteLength":3108752,
			"uri":"data:application/octet-stream;base64,"
		}
	]
}
