{
	"asset":{
		"generator":"Khronos glTF Blender I/O v3.5.30",
		"version":"2.0"
	},
	"extensionsUsed":[
		"KHR_materials_specular",
		"KHR_materials_ior"
	],
	"scene":0,
	"scenes":[
		{
			"name":"Scene",
			"nodes":[
				0,
				1
			]
		}
	],
	"nodes":[
		{
			"mesh":0,
			"name":"Plane",
			"scale":[
				2.3155105113983154,
				2.3155105113983154,
				2.3155105113983154
			]
		},
		{
			"mesh":1,
			"name":"MH002 AGD Kettle"
		}
	],
	"materials":[
		{
			"doubleSided":true,
			"name":"BackGround",
			"pbrMetallicRoughness":{
				"baseColorFactor":[
					0.879622757434845,
					0.8796225786209106,
					0.8796225786209106,
					1
				],
				"metallicFactor":0,
				"roughnessFactor":0.5
			}
		},
		{
			"alphaMode":"BLEND",
			"extensions":{
				"KHR_materials_specular":{
					"specularColorFactor":[
						0.004917222949488166,
						0.004917222949488166,
						0.004917222949488166
					]
				},
				"KHR_materials_ior":{
					"ior":100
				}
			},
			"name":"T_Plastic",
			"pbrMetallicRoughness":{
				"baseColorFactor":[
					0.401966392993927,
					0.401966392993927,
					0.401966392993927,
					0.181101992726326
				],
				"metallicFactor":0,
				"roughnessFactor":0
			}
		},
		{
			"doubleSided":true,
			"name":"Black_Metal",
			"pbrMetallicRoughness":{
				"baseColorFactor":[
					0.027647653594613075,
					0.027647653594613075,
					0.027647653594613075,
					1
				]
			}
		},
		{
			"doubleSided":true,
			"name":"White_Plastic",
			"pbrMetallicRoughness":{
				"baseColorFactor":[
					0.800000011920929,
					0.800000011920929,
					0.800000011920929,
					1
				],
				"metallicFactor":0,
				"metallicRoughnessTexture":{
					"index":0
				}
			}
		},
		{
			"doubleSided":true,
			"name":"Plastic",
			"pbrMetallicRoughness":{}
		}
	],
	"meshes":[
		{
			"name":"Plane.001",
			"primitives":[
				{
					"attributes":{
						"POSITION":0,
						"TEXCOORD_0":1,
						"NORMAL":2
					},
					"indices":3,
					"material":0
				}
			]
		},
		{
			"name":"Cylinder.001",
			"primitives":[
				{
					"attributes":{
						"POSITION":4,
						"TEXCOORD_0":5,
						"NORMAL":6
					},
					"indices":7,
					"material":1
				},
				{
					"attributes":{
						"POSITION":8,
						"TEXCOORD_0":9,
						"NORMAL":10
					},
					"indices":11,
					"material":2
				},
				{
					"attributes":{
						"POSITION":12,
						"TEXCOORD_0":13,
						"NORMAL":14
					},
					"indices":15,
					"material":3
				},
				{
					"attributes":{
						"POSITION":16,
						"TEXCOORD_0":17,
						"NORMAL":18
					},
					"indices":19,
					"material":4
				}
			]
		}
	],
	"textures":[
		{
			"sampler":0,
			"source":0
		}
	],
	"images":[
		{
			"bufferView":16,
			"mimeType":"image/png",
			"name":"Image"
		}
	],
	"accessors":[
		{
			"bufferView":0,
			"componentType":5126,
			"count":54,
			"max":[
				1,
				1.0634607076644897,
				1
			],
			"min":[
				-1,
				0,
				-1
			],
			"type":"VEC3"
		},
		{
			"bufferView":1,
			"componentType":5126,
			"count":54,
			"type":"VEC2"
		},
		{
			"bufferView":2,
			"componentType":5126,
			"count":54,
			"type":"VEC3"
		},
		{
			"bufferView":3,
			"componentType":5123,
			"count":192,
			"type":"SCALAR"
		},
		{
			"bufferView":4,
			"componentType":5126,
			"count":833,
			"max":[
				0.04916786402463913,
				0.14264008402824402,
				0.023258686065673828
			],
			"min":[
				-0.009992961771786213,
				0.032766859978437424,
				-0.0516137070953846
			],
			"type":"VEC3"
		},
		{
			"bufferView":5,
			"componentType":5126,
			"count":833,
			"type":"VEC2"
		},
		{
			"bufferView":6,
			"componentType":5126,
			"count":833,
			"type":"VEC3"
		},
		{
			"bufferView":7,
			"componentType":5123,
			"count":3936,
			"type":"SCALAR"
		},
		{
			"bufferView":8,
			"componentType":5126,
			"count":50986,
			"max":[
				0.05088578909635544,
				0.1862279772758484,
				0.05507059022784233
			],
			"min":[
				-0.050767045468091965,
				-0.00070504768518731,
				-0.09921514242887497
			],
			"type":"VEC3"
		},
		{
			"bufferView":9,
			"componentType":5126,
			"count":50986,
			"type":"VEC2"
		},
		{
			"bufferView":10,
			"componentType":5126,
			"count":50986,
			"type":"VEC3"
		},
		{
			"bufferView":11,
			"componentType":5123,
			"count":169584,
			"type":"SCALAR"
		},
		{
			"bufferView":12,
			"componentType":5126,
			"count":3026,
			"max":[
				0.050767045468091965,
				0.044038549065589905,
				0.050767045468091965
			],
			"min":[
				-0.050767045468091965,
				0.001260319142602384,
				-0.0695725604891777
			],
			"type":"VEC3"
		},
		{
			"bufferView":13,
			"componentType":5126,
			"count":3026,
			"type":"VEC2"
		},
		{
			"bufferView":14,
			"componentType":5126,
			"count":3026,
			"type":"VEC3"
		},
		{
			"bufferView":15,
			"componentType":5123,
			"count":14784,
			"type":"SCALAR"
		},
		{
			"bufferView":17,
			"componentType":5126,
			"count":2761,
			"max":[
				0.049384620040655136,
				0.12584097683429718,
				-0.010436046868562698
			],
			"min":[
				-0.0026628137566149235,
				0.03993399813771248,
				-0.051861658692359924
			],
			"type":"VEC3"
		},
		{
			"bufferView":18,
			"componentType":5126,
			"count":2761,
			"type":"VEC2"
		},
		{
			"bufferView":19,
			"componentType":5126,
			"count":2761,
			"type":"VEC3"
		},
		{
			"bufferView":20,
			"componentType":5123,
			"count":14208,
			"type":"SCALAR"
		}
	],
	"bufferViews":[
		{
			"buffer":0,
			"byteLength":648,
			"byteOffset":0,
			"target":34962
		},
		{
			"buffer":0,
			"byteLength":432,
			"byteOffset":648,
			"target":34962
		},
		{
			"buffer":0,
			"byteLength":648,
			"byteOffset":1080,
			"target":34962
		},
		{
			"buffer":0,
			"byteLength":384,
			"byteOffset":1728,
			"target":34963
		},
		{
			"buffer":0,
			"byteLength":9996,
			"byteOffset":2112,
			"target":34962
		},
		{
			"buffer":0,
			"byteLength":6664,
			"byteOffset":12108,
			"target":34962
		},
		{
			"buffer":0,
			"byteLength":9996,
			"byteOffset":18772,
			"target":34962
		},
		{
			"buffer":0,
			"byteLength":7872,
			"byteOffset":28768,
			"target":34963
		},
		{
			"buffer":0,
			"byteLength":611832,
			"byteOffset":36640,
			"target":34962
		},
		{
			"buffer":0,
			"byteLength":407888,
			"byteOffset":648472,
			"target":34962
		},
		{
			"buffer":0,
			"byteLength":611832,
			"byteOffset":1056360,
			"target":34962
		},
		{
			"buffer":0,
			"byteLength":339168,
			"byteOffset":1668192,
			"target":34963
		},
		{
			"buffer":0,
			"byteLength":36312,
			"byteOffset":2007360,
			"target":34962
		},
		{
			"buffer":0,
			"byteLength":24208,
			"byteOffset":2043672,
			"target":34962
		},
		{
			"buffer":0,
			"byteLength":36312,
			"byteOffset":2067880,
			"target":34962
		},
		{
			"buffer":0,
			"byteLength":29568,
			"byteOffset":2104192,
			"target":34963
		},
		{
			"buffer":0,
			"byteLength":90,
			"byteOffset":2133760
		},
		{
			"buffer":0,
			"byteLength":33132,
			"byteOffset":2133852,
			"target":34962
		},
		{
			"buffer":0,
			"byteLength":22088,
			"byteOffset":2166984,
			"target":34962
		},
		{
			"buffer":0,
			"byteLength":33132,
			"byteOffset":2189072,
			"target":34962
		},
		{
			"buffer":0,
			"byteLength":28416,
			"byteOffset":2222204,
			"target":34963
		}
	],
	"samplers":[
		{
			"magFilter":9729,
			"minFilter":9987
		}
	],
	"buffers":[
		{
			"byteLength":2250620,
			"uri":"data:application/octet-stream;base64,"
		}
	]
}
