{
	"asset":{
		"generator":"Khronos glTF Blender I/O v3.5.30",
		"version":"2.0"
	},
	"extensionsUsed":[
		"KHR_materials_clearcoat",
		"KHR_materials_specular",
		"KHR_materials_ior"
	],
	"scene":0,
	"scenes":[
		{
			"name":"Scene",
			"nodes":[
				0
			]
		}
	],
	"nodes":[
		{
			"mesh":0,
			"name":"MH005 Kitchen_sinks_1.2",
			"translation":[
				-0.012582000344991684,
				0.10779955983161926,
				-0.09893699735403061
			]
		}
	],
	"animations":[
		{
			"channels":[
				{
					"sampler":0,
					"target":{
						"node":0,
						"path":"rotation"
					}
				}
			],
			"name":"Circle.002Action",
			"samplers":[
				{
					"input":12,
					"interpolation":"LINEAR",
					"output":13
				}
			]
		}
	],
	"materials":[
		{
			"doubleSided":true,
			"extensions":{
				"KHR_materials_clearcoat":{
					"clearcoatFactor":0.029999999329447746,
					"clearcoatRoughnessFactor":0
				}
			},
			"name":"Sink_Metal_MainTexture",
			"pbrMetallicRoughness":{
				"baseColorFactor":[
					0.800000011920929,
					0.800000011920929,
					0.800000011920929,
					1
				],
				"roughnessFactor":0.30000001192092896
			}
		},
		{
			"doubleSided":true,
			"extensions":{
				"KHR_materials_specular":{
					"specularColorFactor":[
						0.5045441838110155,
						0.5045441838110155,
						0.5045441838110155
					]
				},
				"KHR_materials_ior":{
					"ior":1.4500000476837158
				}
			},
			"name":"Sink_OtherMetal",
			"pbrMetallicRoughness":{
				"baseColorFactor":[
					0.800000011920929,
					0.800000011920929,
					0.800000011920929,
					1
				],
				"roughnessFactor":0.1595744788646698
			}
		},
		{
			"doubleSided":true,
			"extensions":{
				"KHR_materials_specular":{
					"specularColorFactor":[
						0,
						0,
						0
					]
				},
				"KHR_materials_ior":{
					"ior":1.4500000476837158
				}
			},
			"name":"Sink_DarkBlack",
			"pbrMetallicRoughness":{
				"baseColorFactor":[
					0,
					0,
					0,
					1
				],
				"metallicFactor":0,
				"roughnessFactor":0.5
			}
		}
	],
	"meshes":[
		{
			"name":"Circle.001",
			"primitives":[
				{
					"attributes":{
						"POSITION":0,
						"TEXCOORD_0":1,
						"NORMAL":2
					},
					"indices":3,
					"material":0
				},
				{
					"attributes":{
						"POSITION":4,
						"TEXCOORD_0":5,
						"NORMAL":6
					},
					"indices":7,
					"material":1
				},
				{
					"attributes":{
						"POSITION":8,
						"TEXCOORD_0":9,
						"NORMAL":10
					},
					"indices":11,
					"material":2
				}
			]
		}
	],
	"accessors":[
		{
			"bufferView":0,
			"componentType":5126,
			"count":1634,
			"max":[
				0.28024977445602417,
				0.11807112395763397,
				0.2249564230442047
			],
			"min":[
				-0.27975037693977356,
				-0.08073790371417999,
				-0.2750782370567322
			],
			"type":"VEC3"
		},
		{
			"bufferView":1,
			"componentType":5126,
			"count":1634,
			"type":"VEC2"
		},
		{
			"bufferView":2,
			"componentType":5126,
			"count":1634,
			"type":"VEC3"
		},
		{
			"bufferView":3,
			"componentType":5123,
			"count":9120,
			"type":"SCALAR"
		},
		{
			"bufferView":4,
			"componentType":5126,
			"count":1634,
			"max":[
				0.19598127901554108,
				0.3298804461956024,
				0.04376743733882904
			],
			"min":[
				-0.19607576727867126,
				-0.07270295917987823,
				-0.24070954322814941
			],
			"type":"VEC3"
		},
		{
			"bufferView":5,
			"componentType":5126,
			"count":1634,
			"type":"VEC2"
		},
		{
			"bufferView":6,
			"componentType":5126,
			"count":1634,
			"type":"VEC3"
		},
		{
			"bufferView":7,
			"componentType":5123,
			"count":8664,
			"type":"SCALAR"
		},
		{
			"bufferView":8,
			"componentType":5126,
			"count":190,
			"max":[
				0.09389529377222061,
				0.08653169125318527,
				0.04326803982257843
			],
			"min":[
				-0.04138026013970375,
				-0.0728829950094223,
				-0.17580297589302063
			],
			"type":"VEC3"
		},
		{
			"bufferView":9,
			"componentType":5126,
			"count":190,
			"type":"VEC2"
		},
		{
			"bufferView":10,
			"componentType":5126,
			"count":190,
			"type":"VEC3"
		},
		{
			"bufferView":11,
			"componentType":5123,
			"count":576,
			"type":"SCALAR"
		},
		{
			"bufferView":12,
			"componentType":5126,
			"count":60,
			"max":[
				2.5
			],
			"min":[
				0.041666666666666664
			],
			"type":"SCALAR"
		},
		{
			"bufferView":13,
			"componentType":5126,
			"count":60,
			"type":"VEC4"
		}
	],
	"bufferViews":[
		{
			"buffer":0,
			"byteLength":19608,
			"byteOffset":0,
			"target":34962
		},
		{
			"buffer":0,
			"byteLength":13072,
			"byteOffset":19608,
			"target":34962
		},
		{
			"buffer":0,
			"byteLength":19608,
			"byteOffset":32680,
			"target":34962
		},
		{
			"buffer":0,
			"byteLength":18240,
			"byteOffset":52288,
			"target":34963
		},
		{
			"buffer":0,
			"byteLength":19608,
			"byteOffset":70528,
			"target":34962
		},
		{
			"buffer":0,
			"byteLength":13072,
			"byteOffset":90136,
			"target":34962
		},
		{
			"buffer":0,
			"byteLength":19608,
			"byteOffset":103208,
			"target":34962
		},
		{
			"buffer":0,
			"byteLength":17328,
			"byteOffset":122816,
			"target":34963
		},
		{
			"buffer":0,
			"byteLength":2280,
			"byteOffset":140144,
			"target":34962
		},
		{
			"buffer":0,
			"byteLength":1520,
			"byteOffset":142424,
			"target":34962
		},
		{
			"buffer":0,
			"byteLength":2280,
			"byteOffset":143944,
			"target":34962
		},
		{
			"buffer":0,
			"byteLength":1152,
			"byteOffset":146224,
			"target":34963
		},
		{
			"buffer":0,
			"byteLength":240,
			"byteOffset":147376
		},
		{
			"buffer":0,
			"byteLength":960,
			"byteOffset":147616
		}
	],
	"buffers":[
		{
			"byteLength":148576,
			"uri":"data:application/octet-stream;base64,"
		}
	]
}
