{
	"asset":{
		"generator":"Khronos glTF Blender I/O v3.5.30",
		"version":"2.0"
	},
	"scene":0,
	"scenes":[
		{
			"name":"Scene",
			"nodes":[
				0,
				1
			]
		}
	],
	"nodes":[
		{
			"mesh":0,
			"name":"Base"
		},
		{
			"mesh":1,
			"name":"Glass"
		}
	],
	"materials":[
		{
			"doubleSided":true,
			"name":"Material",
			"normalTexture":{
				"index":0
			},
			"pbrMetallicRoughness":{
				"baseColorTexture":{
					"index":1
				},
				"metallicRoughnessTexture":{
					"index":2
				}
			}
		},
		{
			"alphaMode":"BLEND",
			"doubleSided":true,
			"name":"Glass",
			"pbrMetallicRoughness":{}
		}
	],
	"meshes":[
		{
			"name":"Cube.016",
			"primitives":[
				{
					"attributes":{
						"POSITION":0,
						"TEXCOORD_0":1,
						"NORMAL":2
					},
					"indices":3,
					"material":0
				}
			]
		},
		{
			"name":"Cube.001",
			"primitives":[
				{
					"attributes":{
						"POSITION":4,
						"TEXCOORD_0":5,
						"NORMAL":6
					},
					"indices":7,
					"material":1
				}
			]
		}
	],
	"textures":[
		{
			"sampler":0,
			"source":0
		},
		{
			"sampler":0,
			"source":1
		},
		{
			"sampler":0,
			"source":2
		}
	],
	"images":[
		{
			"bufferView":4,
			"mimeType":"image/jpeg",
			"name":"Clock_03_normal"
		},
		{
			"bufferView":5,
			"mimeType":"image/jpeg",
			"name":"Clock_03_diffuse"
		},
		{
			"bufferView":6,
			"mimeType":"image/jpeg",
			"name":"Clock_03_metallic-Clock_03_roughness"
		}
	],
	"accessors":[
		{
			"bufferView":0,
			"componentType":5126,
			"count":23508,
			"max":[
				0.1874934285879135,
				0.5004523396492004,
				0.03602566942572594
			],
			"min":[
				-0.1875065714120865,
				1.4901161193847656e-08,
				-0.03397431969642639
			],
			"type":"VEC3"
		},
		{
			"bufferView":1,
			"componentType":5126,
			"count":23508,
			"type":"VEC2"
		},
		{
			"bufferView":2,
			"componentType":5126,
			"count":23508,
			"type":"VEC3"
		},
		{
			"bufferView":3,
			"componentType":5123,
			"count":103926,
			"type":"SCALAR"
		},
		{
			"bufferView":7,
			"componentType":5126,
			"count":838,
			"max":[
				0.16744114458560944,
				0.3580983877182007,
				0.048036567866802216
			],
			"min":[
				-0.1674542874097824,
				0.018634065985679626,
				0.024243030697107315
			],
			"type":"VEC3"
		},
		{
			"bufferView":8,
			"componentType":5126,
			"count":838,
			"type":"VEC2"
		},
		{
			"bufferView":9,
			"componentType":5126,
			"count":838,
			"type":"VEC3"
		},
		{
			"bufferView":10,
			"componentType":5123,
			"count":4224,
			"type":"SCALAR"
		}
	],
	"bufferViews":[
		{
			"buffer":0,
			"byteLength":282096,
			"byteOffset":0,
			"target":34962
		},
		{
			"buffer":0,
			"byteLength":188064,
			"byteOffset":282096,
			"target":34962
		},
		{
			"buffer":0,
			"byteLength":282096,
			"byteOffset":470160,
			"target":34962
		},
		{
			"buffer":0,
			"byteLength":207852,
			"byteOffset":752256,
			"target":34963
		},
		{
			"buffer":0,
			"byteLength":85424,
			"byteOffset":960108
		},
		{
			"buffer":0,
			"byteLength":143969,
			"byteOffset":1045532
		},
		{
			"buffer":0,
			"byteLength":179843,
			"byteOffset":1189504
		},
		{
			"buffer":0,
			"byteLength":10056,
			"byteOffset":1369348,
			"target":34962
		},
		{
			"buffer":0,
			"byteLength":6704,
			"byteOffset":1379404,
			"target":34962
		},
		{
			"buffer":0,
			"byteLength":10056,
			"byteOffset":1386108,
			"target":34962
		},
		{
			"buffer":0,
			"byteLength":8448,
			"byteOffset":1396164,
			"target":34963
		}
	],
	"samplers":[
		{
			"magFilter":9729,
			"minFilter":9987
		}
	],
	"buffers":[
		{
			"byteLength":1404612,
			"uri":"data:application/octet-stream;base64,"
		}
	]
}
