{
	"asset":{
		"generator":"Khronos glTF Blender I/O v3.5.30",
		"version":"2.0"
	},
	"scene":0,
	"scenes":[
		{
			"name":"Scene",
			"nodes":[
				0,
				1
			]
		}
	],
	"nodes":[
		{
			"mesh":0,
			"name":"Base"
		},
		{
			"mesh":1,
			"name":"Glass"
		}
	],
	"materials":[
		{
			"doubleSided":true,
			"name":"Material",
			"normalTexture":{
				"index":0
			},
			"pbrMetallicRoughness":{
				"baseColorTexture":{
					"index":1
				},
				"metallicRoughnessTexture":{
					"index":2
				}
			}
		},
		{
			"alphaMode":"BLEND",
			"name":"Clock_Glass",
			"pbrMetallicRoughness":{
				"baseColorFactor":[
					0.800000011920929,
					0.800000011920929,
					0.800000011920929,
					1
				],
				"metallicFactor":0,
				"roughnessFactor":0
			}
		}
	],
	"meshes":[
		{
			"name":"Cube.001",
			"primitives":[
				{
					"attributes":{
						"POSITION":0,
						"TEXCOORD_0":1,
						"NORMAL":2
					},
					"indices":3,
					"material":0
				}
			]
		},
		{
			"name":"Cube.002",
			"primitives":[
				{
					"attributes":{
						"POSITION":4,
						"TEXCOORD_0":5,
						"NORMAL":6
					},
					"indices":7,
					"material":1
				}
			]
		}
	],
	"textures":[
		{
			"sampler":0,
			"source":0
		},
		{
			"sampler":0,
			"source":1
		},
		{
			"sampler":0,
			"source":2
		}
	],
	"images":[
		{
			"bufferView":4,
			"mimeType":"image/jpeg",
			"name":"Clock_2_normal.jpg"
		},
		{
			"bufferView":5,
			"mimeType":"image/jpeg",
			"name":"Clock_2_diffuse.jpg"
		},
		{
			"bufferView":6,
			"mimeType":"image/jpeg",
			"name":"Clock_2_metallic.jpg-Clock_2_roughness.jpg"
		}
	],
	"accessors":[
		{
			"bufferView":0,
			"componentType":5126,
			"count":7390,
			"max":[
				0.04610045999288559,
				0.09969086199998856,
				0.016253404319286346
			],
			"min":[
				-0.05370224267244339,
				8.122436702251434e-05,
				-0.020832598209381104
			],
			"type":"VEC3"
		},
		{
			"bufferView":1,
			"componentType":5126,
			"count":7390,
			"type":"VEC2"
		},
		{
			"bufferView":2,
			"componentType":5126,
			"count":7390,
			"type":"VEC3"
		},
		{
			"bufferView":3,
			"componentType":5123,
			"count":27876,
			"type":"SCALAR"
		},
		{
			"bufferView":7,
			"componentType":5126,
			"count":1377,
			"max":[
				0.042954981327056885,
				0.09596844762563705,
				0.018270213156938553
			],
			"min":[
				-0.02479379065334797,
				0.028219683095812798,
				0.012660696171224117
			],
			"type":"VEC3"
		},
		{
			"bufferView":8,
			"componentType":5126,
			"count":1377,
			"type":"VEC2"
		},
		{
			"bufferView":9,
			"componentType":5126,
			"count":1377,
			"type":"VEC3"
		},
		{
			"bufferView":10,
			"componentType":5123,
			"count":7680,
			"type":"SCALAR"
		}
	],
	"bufferViews":[
		{
			"buffer":0,
			"byteLength":88680,
			"byteOffset":0,
			"target":34962
		},
		{
			"buffer":0,
			"byteLength":59120,
			"byteOffset":88680,
			"target":34962
		},
		{
			"buffer":0,
			"byteLength":88680,
			"byteOffset":147800,
			"target":34962
		},
		{
			"buffer":0,
			"byteLength":55752,
			"byteOffset":236480,
			"target":34963
		},
		{
			"buffer":0,
			"byteLength":329505,
			"byteOffset":292232
		},
		{
			"buffer":0,
			"byteLength":328016,
			"byteOffset":621740
		},
		{
			"buffer":0,
			"byteLength":266356,
			"byteOffset":949756
		},
		{
			"buffer":0,
			"byteLength":16524,
			"byteOffset":1216112,
			"target":34962
		},
		{
			"buffer":0,
			"byteLength":11016,
			"byteOffset":1232636,
			"target":34962
		},
		{
			"buffer":0,
			"byteLength":16524,
			"byteOffset":1243652,
			"target":34962
		},
		{
			"buffer":0,
			"byteLength":15360,
			"byteOffset":1260176,
			"target":34963
		}
	],
	"samplers":[
		{
			"magFilter":9729,
			"minFilter":9987
		}
	],
	"buffers":[
		{
			"byteLength":1275536,
			"uri":"data:application/octet-stream;base64,"
		}
	]
}
