{
	"asset":{
		"generator":"Khronos glTF Blender I/O v3.5.30",
		"version":"2.0"
	},
	"extensionsUsed":[
		"KHR_materials_specular",
		"KHR_materials_ior"
	],
	"scene":0,
	"scenes":[
		{
			"name":"Scene",
			"nodes":[
				0
			]
		}
	],
	"nodes":[
		{
			"mesh":0,
			"name":"Mirror01",
			"rotation":[
				0.70710688829422,
				0,
				0,
				0.7071066498756409
			],
			"scale":[
				0.3315292298793793,
				1.2965912818908691,
				0.8532001972198486
			]
		}
	],
	"materials":[
		{
			"doubleSided":true,
			"extensions":{
				"KHR_materials_specular":{
					"specularColorFactor":[
						1.6599503018401929,
						1.6599503018401929,
						1.6599503018401929
					]
				},
				"KHR_materials_ior":{
					"ior":1.4500000476837158
				}
			},
			"name":"MH010 Mirrors_01_MirrorFrame",
			"pbrMetallicRoughness":{
				"baseColorFactor":[
					0.049556441605091095,
					0.049556441605091095,
					0.049556441605091095,
					1
				]
			}
		},
		{
			"doubleSided":true,
			"name":"MH010 Mirrors_01_Mirror",
			"pbrMetallicRoughness":{}
		}
	],
	"meshes":[
		{
			"name":"Plane",
			"primitives":[
				{
					"attributes":{
						"POSITION":0,
						"TEXCOORD_0":1,
						"NORMAL":2
					},
					"indices":3,
					"material":0
				},
				{
					"attributes":{
						"POSITION":4,
						"TEXCOORD_0":5,
						"NORMAL":6
					},
					"indices":7,
					"material":1
				}
			]
		}
	],
	"accessors":[
		{
			"bufferView":0,
			"componentType":5126,
			"count":2291,
			"max":[
				1.0255506038665771,
				0.030609257519245148,
				0
			],
			"min":[
				-1.0255506038665771,
				-0.030609264969825745,
				-2.0511012077331543
			],
			"type":"VEC3"
		},
		{
			"bufferView":1,
			"componentType":5126,
			"count":2291,
			"type":"VEC2"
		},
		{
			"bufferView":2,
			"componentType":5126,
			"count":2291,
			"type":"VEC3"
		},
		{
			"bufferView":3,
			"componentType":5123,
			"count":12738,
			"type":"SCALAR"
		},
		{
			"bufferView":4,
			"componentType":5126,
			"count":292,
			"max":[
				0.910102903842926,
				0.026631394401192665,
				-0.05204862356185913
			],
			"min":[
				-0.910102903842926,
				0.025565525516867638,
				-1.9752118587493896
			],
			"type":"VEC3"
		},
		{
			"bufferView":5,
			"componentType":5126,
			"count":292,
			"type":"VEC2"
		},
		{
			"bufferView":6,
			"componentType":5126,
			"count":292,
			"type":"VEC3"
		},
		{
			"bufferView":7,
			"componentType":5123,
			"count":1536,
			"type":"SCALAR"
		}
	],
	"bufferViews":[
		{
			"buffer":0,
			"byteLength":27492,
			"byteOffset":0,
			"target":34962
		},
		{
			"buffer":0,
			"byteLength":18328,
			"byteOffset":27492,
			"target":34962
		},
		{
			"buffer":0,
			"byteLength":27492,
			"byteOffset":45820,
			"target":34962
		},
		{
			"buffer":0,
			"byteLength":25476,
			"byteOffset":73312,
			"target":34963
		},
		{
			"buffer":0,
			"byteLength":3504,
			"byteOffset":98788,
			"target":34962
		},
		{
			"buffer":0,
			"byteLength":2336,
			"byteOffset":102292,
			"target":34962
		},
		{
			"buffer":0,
			"byteLength":3504,
			"byteOffset":104628,
			"target":34962
		},
		{
			"buffer":0,
			"byteLength":3072,
			"byteOffset":108132,
			"target":34963
		}
	],
	"buffers":[
		{
			"byteLength":111204,
			"uri":"MH010%20Mirrors_01.bin"
		}
	]
}
